<?xml version="1.0" encoding="UTF-8"?>
<svg width="71px" height="71px" viewBox="0 0 71 71" version="1.1" xmlns="http://www.w3.org/2000/svg" xmlns:xlink="http://www.w3.org/1999/xlink">
    <!-- Generator: sketchtool 49.3 (51167) - http://www.bohemiancoding.com/sketch -->
    <title>3F0BE71E-D1D0-4E02-A16F-6FFFF24CFCAE@svg</title>
    <desc>Created with sketchtool.</desc>
    <defs></defs>
    <g id="Symbols" stroke="none" stroke-width="1" fill="none" fill-rule="evenodd">
        <g id="userpic_fill" transform="translate(-15.000000, -25.000000)" fill="#00F1FF" stroke="#00F1FF" stroke-width="2">
            <g transform="translate(17.000000, 26.000000)">
                <path d="M18.1350274,15.5721587 C18.1350274,15.5173272 18.1350274,15.4624956 18.1350274,15.4076641 C18.7931021,1.12404667 29.322298,0 32.5578322,0 C32.6949311,0 33.2707465,0 33.4352652,0 C36.6433796,0 47.1999952,1.12404667 47.85807,15.4076641 C47.85807,15.4624956 47.85807,15.5173272 47.85807,15.5721587 C47.8854898,15.7092376 49.229059,28.9236399 43.0596083,35.8598303 C40.6192478,38.6014075 37.3562939,39.9721962 33.1062278,39.9996119 C28.8561618,40.0270277 25.4286891,38.6014075 22.9883286,35.8598303 C16.7914581,28.9784714 18.1076076,15.7092376 18.1350274,15.5721587 Z" id="Path"></path>
                <path d="M67,54.0215515 C61.7132512,43.7002929 39.951589,47.7908835 39.8378378,38 C39.8378378,38 27.1621622,38 27.1621622,38 C27.0320485,47.8276996 5.28674878,43.7002929 0,54.0215515 C9.80773353,64.0071838 20.9744002,69 33.5,69 C46.0255998,69 57.1922665,64.0071838 67,54.0215515 Z" id="Path-2"></path>
            </g>
        </g>
    </g>
</svg>