<?xml version="1.0" encoding="UTF-8"?>
<svg width="3px" height="14px" viewBox="0 0 3 14" version="1.1" xmlns="http://www.w3.org/2000/svg" xmlns:xlink="http://www.w3.org/1999/xlink">
    <!-- Generator: sketchtool 49.3 (51167) - http://www.bohemiancoding.com/sketch -->
    <title>6BB2EC74-EEAB-428C-B94C-B612B1879A5E@svg</title>
    <desc>Created with sketchtool.</desc>
    <defs></defs>
    <g id="Symbols" stroke="none" stroke-width="1" fill="none" fill-rule="evenodd">
        <g id="chekoval_!" transform="translate(-24.000000, -17.000000)" fill="#FFFFFF">
            <g transform="translate(24.000000, 17.000000)" id="!">
                <path d="M0.294,0.4 L2.706,0.4 L2.706,6.322 L2.238,9.256 L0.762,9.256 L0.294,6.322 L0.294,0.4 Z M0.042,11.812 C0.042,11.3919979 0.17399868,11.0590012 0.438,10.813 C0.70200132,10.5669988 1.04999784,10.444 1.482,10.444 C1.93800228,10.444 2.29799868,10.5669988 2.562,10.813 C2.82600132,11.0590012 2.958,11.3919979 2.958,11.812 C2.958,12.2320021 2.82600132,12.5679987 2.562,12.82 C2.29799868,13.0720013 1.93800228,13.198 1.482,13.198 C1.04999784,13.198 0.70200132,13.0720013 0.438,12.82 C0.17399868,12.5679987 0.042,12.2320021 0.042,11.812 Z"></path>
            </g>
        </g>
    </g>
</svg>