<?xml version="1.0" encoding="UTF-8"?>
<svg width="3px" height="8px" viewBox="0 0 3 8" version="1.1" xmlns="http://www.w3.org/2000/svg" xmlns:xlink="http://www.w3.org/1999/xlink">
    <!-- Generator: sketchtool 49.3 (51167) - http://www.bohemiancoding.com/sketch -->
    <title>F3985138-2F2A-4746-8BCD-43E20BF4717D@svg</title>
    <desc>Created with sketchtool.</desc>
    <defs></defs>
    <g id="Page-1" stroke="none" stroke-width="1" fill="none" fill-rule="evenodd">
        <g id="Mobile" transform="translate(-100.000000, -8425.000000)" fill="#FFFFFF">
            <g id="Group-4" transform="translate(92.333333, 8400.000000)">
                <g id="chekoval-copy" transform="translate(0.000000, 20.000000)">
                    <g id="chekoval_!" transform="translate(0.200000, 0.200000)">
                        <path d="M8.17283951,5 L9.82716049,5 L9.82716049,8.23909986 L9.50617284,9.84388186 L8.49382716,9.84388186 L8.17283951,8.23909986 L8.17283951,5 Z M8,11.2419128 C8,11.0121883 8.09053407,10.8300522 8.27160494,10.6954993 C8.4526758,10.5609464 8.69135654,10.4936709 8.98765432,10.4936709 C9.30041309,10.4936709 9.5473242,10.5609464 9.72839506,10.6954993 C9.90946593,10.8300522 10,11.0121883 10,11.2419128 C10,11.4716373 9.90946593,11.6554142 9.72839506,11.7932489 C9.5473242,11.9310837 9.30041309,12 8.98765432,12 C8.69135654,12 8.4526758,11.9310837 8.27160494,11.7932489 C8.09053407,11.6554142 8,11.4716373 8,11.2419128 Z" id="72568245"></path>
                    </g>
                </g>
            </g>
        </g>
    </g>
</svg>