<?xml version="1.0" encoding="UTF-8"?>
<svg width="130px" height="29px" viewBox="0 0 130 29" version="1.1" xmlns="http://www.w3.org/2000/svg" xmlns:xlink="http://www.w3.org/1999/xlink">
    <!-- Generator: sketchtool 49.3 (51167) - http://www.bohemiancoding.com/sketch -->
    <title>412A7A65-5A90-487A-A6B0-E747958F385C@svg</title>
    <desc>Created with sketchtool.</desc>
    <defs></defs>
    <g id="Page-1" stroke="none" stroke-width="1" fill="none" fill-rule="evenodd">
        <g id="Desktop-HD" transform="translate(-81.000000, -77.000000)">
            <g id="logo_onB" transform="translate(81.000000, 77.000000)">
                <g id="logo">
                    <path d="M38.6036921,9.98578094 C38.6036921,6.95382145 36.118587,4.49576757 33.0532604,4.49576757 C29.9878111,4.49576757 27.5026909,6.9538065 27.5026909,9.98578094 C27.5026909,13.0178767 29.987796,15.4759305 33.0532604,15.4759305 C36.1186021,15.4759305 38.6036921,13.0178617 38.6036921,9.98578094 Z M43.1489362,9.98578094 C43.1489362,15.5007933 38.6288835,19.9716981 33.0532604,19.9716981 C27.477527,19.9716981 22.9574468,15.5008205 22.9574468,9.98578094 C22.9574468,4.4708504 27.4775545,0 33.0532604,0 C38.628856,0 43.1489362,4.47087758 43.1489362,9.98578094 Z" id="Stroke-1" fill="#FFFFFF" fill-rule="nonzero"></path>
                    <polygon id="Stroke-3" fill="#1BDCE7" fill-rule="nonzero" points="22.9574468 28.1792453 22.9574468 24.0754717 43.1489362 24.0754717 43.1489362 28.1792453"></polygon>
                    <path d="M0,17.728683 L0,10.27651 L4.55585704,10.27651 L4.55585704,10.2827585 C5.75450301,9.6566352 7.1222934,9.30188679 8.57439906,9.30188679 C13.3099637,9.30188679 17.1489362,13.074713 17.1489362,17.728683 L17.1489362,28.1643208 L12.5930791,28.1643208 L12.5930791,17.728683 C12.5930791,15.5474899 10.7938334,13.7792455 8.57439906,13.7792455 C6.35500654,13.7792455 4.55585704,15.5474489 4.55585704,17.728683 L4.55585704,28.1792453 L0,28.1792453 L0,17.728683 Z" id="Combined-Shape" fill="#FFFFFF" fill-rule="nonzero"></path>
                    <path d="M115.063885,12.0358363 C116.637447,10.3543624 118.886949,9.30188679 121.384687,9.30188679 C126.14287,9.30188679 130,13.1209305 130,17.832001 L130,28.1220015 L125.422478,28.1220015 L125.422478,17.832001 C125.422478,15.62401 123.614759,13.8341409 121.384687,13.8341409 C119.239072,13.8341409 117.484241,15.4913793 117.354702,17.5836065 C117.357085,17.6661166 117.358285,17.7489201 117.358285,17.832001 L117.358285,28.1640828 L112.780763,28.1640828 L112.780763,28.1369717 L112.769513,28.1369717 L112.769513,17.832001 C112.769513,17.74892 112.770713,17.6661165 112.773096,17.5836063 C112.643556,15.4913556 110.88869,13.8341409 108.742834,13.8341409 C106.51297,13.8341409 104.705182,15.6240787 104.705182,17.832001 L104.705182,28.1791903 L100.12766,28.1792453 L100.12766,10.3962264 L104.518122,10.3962264 C105.766399,9.69943683 107.207733,9.30188679 108.742834,9.30188679 C111.240698,9.30188679 113.490279,10.354356 115.063885,12.0358363 Z" id="Combined-Shape" fill="#FFFFFF" fill-rule="nonzero"></path>
                    <polygon id="Stroke-12" fill="#FFFFFF" fill-rule="nonzero" points="59.169055 21.7563647 63.6766319 10.3963633 68.6067797 10.3962264 61.6231449 28.1792453 56.6991094 28.1781512 49.6612591 10.3962264 54.5855105 10.393972"></polygon>
                    <path d="M88.1037541,10.3962264 L92.6595745,10.3962264 L92.6595745,20.5686096 C92.6595745,25.2252134 88.8206729,29 84.0851064,29 C79.3495399,29 75.5106383,25.2252134 75.5106383,20.5686096 L75.5106383,10.4110233 L80.0664587,10.4110233 L80.0664587,20.5686096 C80.0664587,22.7510731 81.8656345,24.5202003 84.0851064,24.5202003 C86.3045782,24.5202003 88.1037541,22.7510731 88.1037541,20.5686096 L88.1037541,10.3962264 Z" id="Stroke-15" fill="#FFFFFF" fill-rule="nonzero"></path>
                </g>
            </g>
        </g>
    </g>
</svg>